<svg width="35" height="35" viewBox="0 0 35 35" fill="none" xmlns="http://www.w3.org/2000/svg">
<path d="M23.7185 28.5868L13.632 18.3383C13.4107 18.1147 13.2867 17.8129 13.2867 17.4983C13.2867 17.1838 13.4107 16.8819 13.632 16.6583L23.7163 6.40989C23.9374 6.18489 24.0613 5.88206 24.0613 5.56661C24.0613 5.25116 23.9374 4.94832 23.7163 4.72333C23.6083 4.61253 23.4792 4.52448 23.3367 4.46436C23.1941 4.40424 23.0409 4.37327 22.8862 4.37327C22.7315 4.37327 22.5783 4.40424 22.4357 4.46436C22.2931 4.52448 22.164 4.61253 22.056 4.72333L11.9717 14.9696C11.309 15.6445 10.9377 16.5525 10.9377 17.4983C10.9377 18.4442 11.309 19.3522 11.9717 20.0271L22.056 30.2733C22.1641 30.3845 22.2933 30.4728 22.4361 30.5331C22.5789 30.5934 22.7323 30.6245 22.8873 30.6245C23.0423 30.6245 23.1957 30.5934 23.3385 30.5331C23.4813 30.4728 23.6105 30.3845 23.7185 30.2733C23.9396 30.0483 24.0635 29.7455 24.0635 29.43C24.0635 29.1146 23.9396 28.8118 23.7185 28.5868Z" fill="#959595"/>
</svg>
