<svg width="35" height="35" viewBox="0 0 35 35" fill="none" xmlns="http://www.w3.org/2000/svg">
<path d="M11.2815 6.41323L21.368 16.6617C21.5893 16.8853 21.7133 17.1871 21.7133 17.5017C21.7133 17.8162 21.5893 18.1181 21.368 18.3417L11.2837 28.5901C11.0626 28.8151 10.9387 29.1179 10.9387 29.4334C10.9387 29.7488 11.0626 30.0517 11.2837 30.2767C11.3917 30.3875 11.5208 30.4755 11.6633 30.5356C11.8059 30.5958 11.9591 30.6267 12.1138 30.6267C12.2685 30.6267 12.4217 30.5958 12.5643 30.5356C12.7069 30.4755 12.836 30.3875 12.944 30.2767L23.0283 20.0304C23.691 19.3555 24.0623 18.4475 24.0623 17.5017C24.0623 16.5558 23.691 15.6478 23.0283 14.9729L12.944 4.72667C12.8359 4.61554 12.7067 4.52721 12.5639 4.46689C12.4211 4.40657 12.2677 4.37549 12.1127 4.37549C11.9577 4.37549 11.8043 4.40657 11.6615 4.46689C11.5187 4.52721 11.3895 4.61554 11.2815 4.72667C11.0604 4.95167 10.9365 5.2545 10.9365 5.56995C10.9365 5.8854 11.0604 6.18824 11.2815 6.41323Z" fill="#959595"/>
</svg>
