<svg width="30" height="22" viewBox="0 0 30 22" fill="none" xmlns="http://www.w3.org/2000/svg">
<path d="M6.28807 12.6483L13.5612 19.1923C13.8966 19.5048 14.0822 19.9233 14.078 20.3577C14.0738 20.7921 13.8801 21.2076 13.5387 21.5148C13.1973 21.8219 12.7355 21.9962 12.2527 21.9999C11.77 22.0037 11.3048 21.8367 10.9576 21.5349L0.541403 12.1629C0.369823 12.0094 0.23366 11.8269 0.140746 11.6259C0.0478323 11.4248 0 11.2093 0 10.9916C0 10.7739 0.0478323 10.5583 0.140746 10.3573C0.23366 10.1563 0.369823 9.97378 0.541403 9.82028L10.9576 0.448221C11.3064 0.153896 11.7688 -0.00676727 12.247 0.000217438C12.7251 0.00720406 13.1815 0.181295 13.5195 0.485655C13.8576 0.790016 14.0507 1.20076 14.0581 1.63099C14.0656 2.06122 13.8867 2.47717 13.5593 2.79082L6.28623 9.33486L27.6704 9.33486C28.1587 9.33486 29.1154 9.50941 29.4607 9.8201C29.806 10.1308 30 10.5522 30 10.9916C30 11.431 29.806 11.8524 29.4607 12.1631C29.1154 12.4738 28.6471 12.6483 28.1587 12.6483L6.28807 12.6483Z" fill="black"/>
</svg>
