<svg width="29" height="29" viewBox="0 0 29 29" fill="none" xmlns="http://www.w3.org/2000/svg">
<path fill-rule="evenodd" clip-rule="evenodd" d="M14.814 0.232422C11.1009 0.232422 7.53998 1.70742 4.91447 4.33293C2.28896 6.95844 0.813965 10.5194 0.813965 14.2324C0.813965 17.9455 2.28896 21.5064 4.91447 24.1319C7.53998 26.7574 11.1009 28.2324 14.814 28.2324H21.814C23.9886 28.2324 25.076 28.2324 25.9331 27.8778C26.4994 27.6432 27.014 27.2994 27.4475 26.866C27.881 26.4325 28.2248 25.9179 28.4593 25.3515C28.814 24.4944 28.814 23.4071 28.814 21.2324V14.2324C28.814 10.5194 27.339 6.95844 24.7135 4.33293C22.0879 1.70742 18.527 0.232422 14.814 0.232422ZM8.59174 12.6769C8.59174 12.2643 8.75563 11.8686 9.04735 11.5769C9.33908 11.2852 9.73474 11.1213 10.1473 11.1213H19.4806C19.8932 11.1213 20.2889 11.2852 20.5806 11.5769C20.8723 11.8686 21.0362 12.2643 21.0362 12.6769C21.0362 13.0894 20.8723 13.4851 20.5806 13.7768C20.2889 14.0685 19.8932 14.2324 19.4806 14.2324H10.1473C9.73474 14.2324 9.33908 14.0685 9.04735 13.7768C8.75563 13.4851 8.59174 13.0894 8.59174 12.6769ZM13.2584 18.8991C13.2584 18.4865 13.4223 18.0909 13.714 17.7991C14.0057 17.5074 14.4014 17.3435 14.814 17.3435H19.4806C19.8932 17.3435 20.2889 17.5074 20.5806 17.7991C20.8723 18.0909 21.0362 18.4865 21.0362 18.8991C21.0362 19.3116 20.8723 19.7073 20.5806 19.999C20.2889 20.2908 19.8932 20.4546 19.4806 20.4546H14.814C14.4014 20.4546 14.0057 20.2908 13.714 19.999C13.4223 19.7073 13.2584 19.3116 13.2584 18.8991Z" fill="#3C3C3C"/>
</svg>
