<svg width="10" height="10" viewBox="0 0 10 10" fill="none" xmlns="http://www.w3.org/2000/svg">
<path fill-rule="evenodd" clip-rule="evenodd" d="M0.243744 0.254407C0.39986 0.0981811 0.61157 0.0104182 0.832318 0.0104182C1.05307 0.0104182 1.26478 0.0981811 1.42089 0.254407L4.9948 3.83191L8.5687 0.254407C8.6455 0.174815 8.73736 0.11133 8.83892 0.0676557C8.94049 0.0239815 9.04973 0.000992978 9.16027 3.14642e-05C9.27081 -0.000930049 9.38043 0.0201545 9.48274 0.0620553C9.58505 0.103956 9.678 0.165834 9.75617 0.244078C9.83433 0.322321 9.89615 0.415365 9.93801 0.517778C9.97987 0.620192 10.0009 0.729925 9.99997 0.840575C9.99901 0.951224 9.97604 1.06057 9.93241 1.16224C9.88878 1.26391 9.82536 1.35587 9.74585 1.43274L6.17194 5.01024L9.74585 8.58774C9.89749 8.74491 9.98141 8.95541 9.97951 9.17391C9.97761 9.3924 9.89006 9.60142 9.73571 9.75592C9.58136 9.91043 9.37256 9.99807 9.15428 9.99997C8.936 10.0019 8.72571 9.91787 8.5687 9.76607L4.9948 6.18857L1.42089 9.76607C1.26388 9.91787 1.05359 10.0019 0.835314 9.99997C0.617036 9.99807 0.408236 9.91043 0.253884 9.75592C0.099533 9.60142 0.0119801 9.3924 0.0100833 9.17391C0.00818653 8.95541 0.0920978 8.74491 0.243744 8.58774L3.81765 5.01024L0.243744 1.43274C0.0876747 1.27647 0 1.06454 0 0.843574C0 0.622603 0.0876747 0.41068 0.243744 0.254407Z" fill="#CCCCCC"/>
</svg>
