<svg width="46" height="43" viewBox="0 0 46 43" fill="none" xmlns="http://www.w3.org/2000/svg">
<path d="M0.00858329 19.4326C-0.0188691 19.1201 0.0197003 18.8054 0.121844 18.5084C0.223988 18.2115 0.387477 17.9387 0.601935 17.7075C0.816393 17.4763 1.07714 17.2917 1.36763 17.1654C1.65811 17.039 1.972 16.9738 2.28937 16.9737H6.66202C7.26935 16.9737 7.85181 17.2121 8.28126 17.6365C8.7107 18.061 8.95197 18.6366 8.95197 19.2368V40.7368C8.95197 41.3371 8.7107 41.9127 8.28126 42.3371C7.85181 42.7616 7.26935 43 6.66202 43H4.18201C3.60887 43.0001 3.05651 42.7879 2.63403 42.4051C2.21155 42.0223 1.94966 41.4969 1.90008 40.9326L0.00858329 19.4326ZM15.8218 18.5296C15.8218 17.5836 16.4172 16.7372 17.2816 16.3343C19.1697 15.454 22.3859 13.6853 23.8366 11.2943C25.7064 8.21186 26.059 2.64336 26.1163 1.36807C26.1243 1.18928 26.1197 1.01049 26.1437 0.833967C26.454 -1.37601 30.7694 1.20513 32.4239 3.93449C33.3227 5.4146 33.4372 7.35978 33.3433 8.8795C33.2414 10.5044 32.7594 12.0739 32.2865 13.6333L31.2789 16.9567H43.7099C44.0637 16.9567 44.4127 17.0377 44.7295 17.1934C45.0463 17.349 45.3223 17.5751 45.5359 17.8539C45.7494 18.1327 45.8947 18.4566 45.9603 18.8002C46.0259 19.1438 46.01 19.4978 45.914 19.8343L39.7655 41.3524C39.6297 41.827 39.3409 42.2448 38.9428 42.5422C38.5447 42.8396 38.0593 43.0003 37.5603 43H18.1118C17.5044 43 16.922 42.7616 16.4925 42.3371C16.0631 41.9127 15.8218 41.3371 15.8218 40.7368V18.5296Z" fill="#E2E2E2"/>
</svg>
