<svg width="15" height="13" viewBox="0 0 15 13" fill="none" xmlns="http://www.w3.org/2000/svg">
<path fill-rule="evenodd" clip-rule="evenodd" d="M1.38324 1.35484C2.17954 0.570829 3.23395 0.0926815 4.3565 0.00654216C5.47904 -0.0795972 6.59592 0.70179 7.5059 1.35487C8.46723 0.669839 9.65508 -0.103705 10.8333 0.0343087C12.0116 0.172323 13.094 0.741934 13.8654 1.62992C14.6367 2.51791 15.0406 3.65926 14.9968 4.8271C14.9529 5.99494 14.4645 7.10377 13.6286 7.93319L9.1755 12.319C8.73265 12.755 8.1321 13 7.5059 13C6.87971 13 6.27915 12.755 5.8363 12.319L1.38324 7.93396C0.497564 7.0616 0 5.87846 0 4.64479C0 3.41112 0.497564 2.2272 1.38324 1.35484Z" fill="#FEE270"/>
</svg>
