<svg width="8" height="16" viewBox="0 0 8 16" fill="none" xmlns="http://www.w3.org/2000/svg">
<path d="M0.446449 1.66491L6.2102 7.52116C6.33661 7.64894 6.40751 7.82142 6.40751 8.00116C6.40751 8.1809 6.33661 8.35339 6.2102 8.48116L0.4477 14.3374C0.321355 14.466 0.250559 14.639 0.250559 14.8193C0.250559 14.9995 0.321355 15.1726 0.4477 15.3012C0.50942 15.3645 0.58319 15.4148 0.664661 15.4491C0.746132 15.4835 0.833657 15.5012 0.922075 15.5012C1.01049 15.5012 1.09802 15.4835 1.17949 15.4491C1.26096 15.4148 1.33473 15.3645 1.39645 15.3012L7.15895 9.44616C7.53761 9.06051 7.74976 8.54164 7.74976 8.00116C7.74976 7.46069 7.53761 6.94182 7.15895 6.55616L1.39645 0.701165C1.33471 0.637662 1.26086 0.587184 1.17927 0.552716C1.09769 0.518248 1.01002 0.500488 0.921449 0.500488C0.83288 0.500488 0.745211 0.518248 0.663624 0.552716C0.582037 0.587184 0.50819 0.637662 0.446449 0.701165C0.320104 0.829734 0.249309 1.00278 0.249309 1.18304C0.249309 1.3633 0.320104 1.53635 0.446449 1.66491Z" fill="#959595"/>
</svg>
