<svg width="20" height="20" viewBox="0 0 20 20" fill="none" xmlns="http://www.w3.org/2000/svg">
<path d="M13.5536 3.66491L7.7898 9.52116C7.66339 9.64894 7.59249 9.82142 7.59249 10.0012C7.59249 10.1809 7.66339 10.3534 7.7898 10.4812L13.5523 16.3374C13.6786 16.466 13.7494 16.639 13.7494 16.8193C13.7494 16.9995 13.6786 17.1726 13.5523 17.3012C13.4906 17.3645 13.4168 17.4148 13.3353 17.4491C13.2539 17.4835 13.1663 17.5012 13.0779 17.5012C12.9895 17.5012 12.902 17.4835 12.8205 17.4491C12.739 17.4148 12.6653 17.3645 12.6036 17.3012L6.84105 11.4462C6.46239 11.0605 6.25024 10.5416 6.25024 10.0012C6.25024 9.46069 6.46239 8.94182 6.84105 8.55616L12.6036 2.70116C12.6653 2.63766 12.7391 2.58718 12.8207 2.55272C12.9023 2.51825 12.99 2.50049 13.0786 2.50049C13.1671 2.50049 13.2548 2.51825 13.3364 2.55272C13.418 2.58718 13.4918 2.63766 13.5536 2.70116C13.6799 2.82973 13.7507 3.00278 13.7507 3.18304C13.7507 3.3633 13.6799 3.53635 13.5536 3.66491Z" fill="#3C3C3C"/>
</svg>
